<svg width="18" height="21" viewBox="0 0 18 21" fill="none" xmlns="http://www.w3.org/2000/svg">
<path d="M16.5819 19.7376H1.42047C1.19707 19.7376 0.982812 19.6489 0.824842 19.4909C0.666872 19.3329 0.578125 19.1187 0.578125 18.8953V3.73395C0.578125 3.51054 0.666872 3.29629 0.824842 3.13832C0.982812 2.98035 1.19707 2.8916 1.42047 2.8916H16.5819C16.8053 2.8916 17.0196 2.98035 17.1775 3.13832C17.3355 3.29629 17.4242 3.51054 17.4242 3.73395V18.8954C17.4242 19.1188 17.3355 19.333 17.1775 19.4909C17.0195 19.6489 16.8053 19.7376 16.5819 19.7376Z" fill="#F1F2F2"/>
<path d="M1.14062 18.4551C1.0375 18.4551 0.953125 18.3707 0.953125 18.2676V8.89258C0.953125 8.84285 0.972879 8.79516 1.00804 8.76C1.04321 8.72483 1.0909 8.70508 1.14062 8.70508C1.24469 8.70508 1.32812 8.78852 1.32812 8.89258V18.2676C1.32812 18.3173 1.30837 18.365 1.27321 18.4002C1.23804 18.4353 1.19035 18.4551 1.14062 18.4551ZM1.14062 8.33008C1.0909 8.33008 1.04321 8.31032 1.00804 8.27516C0.972879 8.24 0.953125 8.19231 0.953125 8.14258C0.953125 8.09285 0.972879 8.04516 1.00804 8.01C1.04321 7.97483 1.0909 7.95508 1.14062 7.95508C1.24469 7.95508 1.32812 8.03852 1.32812 8.14258C1.32812 8.19231 1.30837 8.24 1.27321 8.27516C1.23804 8.31032 1.19035 8.33008 1.14062 8.33008Z" fill="white"/>
<path d="M16.5819 2.8916H16.4867V17.9579C16.4867 18.1813 16.398 18.3955 16.24 18.5534C16.082 18.7114 15.8678 18.8001 15.6444 18.8001H0.578125V18.8954C0.57815 19.1188 0.666908 19.333 0.824875 19.4909C0.982842 19.6489 1.19708 19.7376 1.42047 19.7376H16.5819C16.8053 19.7376 17.0195 19.6489 17.1775 19.4909C17.3355 19.333 17.4242 19.1188 17.4242 18.8954V3.73395C17.4242 3.51054 17.3355 3.29629 17.1775 3.13832C17.0196 2.98035 16.8053 2.8916 16.5819 2.8916Z" fill="#E6E7E8"/>
<path d="M16.8955 2.95215C16.9354 3.05178 16.9559 3.15813 16.9558 3.26546V18.4269C16.9557 18.6503 16.867 18.8645 16.709 19.0225C16.551 19.1804 16.3368 19.2691 16.1134 19.2691H0.951984C0.844651 19.2693 0.738289 19.2488 0.638672 19.2089C0.701289 19.3651 0.809247 19.4989 0.948634 19.5932C1.08802 19.6875 1.25245 19.7379 1.42073 19.7379H16.5822C16.8056 19.7379 17.0198 19.6492 17.1778 19.4912C17.3357 19.3333 17.4245 19.119 17.4245 18.8956V3.73421C17.4245 3.56593 17.3741 3.4015 17.2798 3.26211C17.1856 3.12272 17.0517 3.01477 16.8955 2.95215Z" fill="#D1D3D4"/>
<path d="M16.5819 2.8916H1.42047C1.19707 2.8916 0.982812 2.98035 0.824842 3.13832C0.666872 3.29629 0.578125 3.51054 0.578125 3.73395V6.84579H17.4242V3.73395C17.4242 3.62333 17.4024 3.5138 17.3601 3.4116C17.3177 3.3094 17.2557 3.21654 17.1775 3.13832C17.0993 3.0601 17.0064 2.99806 16.9042 2.95572C16.802 2.91339 16.6925 2.8916 16.5819 2.8916Z" fill="#478CF7"/>
<path d="M5.21106 5.52175C4.99698 5.52175 4.79167 5.43671 4.64029 5.28533C4.48892 5.13395 4.40387 4.92864 4.40387 4.71456V1.06891C4.40387 0.854827 4.48892 0.649515 4.64029 0.498138C4.79167 0.346761 4.99698 0.261719 5.21106 0.261719C5.42514 0.261719 5.63045 0.346761 5.78183 0.498138C5.93321 0.649515 6.01825 0.854827 6.01825 1.06891V4.71456C6.01826 4.82057 5.99739 4.92554 5.95683 5.02347C5.91627 5.12141 5.85681 5.2104 5.78186 5.28536C5.7069 5.36031 5.61791 5.41977 5.51997 5.46033C5.42204 5.50089 5.31707 5.52176 5.21106 5.52175ZM12.7919 5.52175C12.5778 5.52175 12.3725 5.43671 12.2211 5.28533C12.0697 5.13395 11.9847 4.92864 11.9847 4.71456V1.06891C11.9847 0.854827 12.0697 0.649515 12.2211 0.498138C12.3725 0.346761 12.5778 0.261719 12.7919 0.261719C13.006 0.261719 13.2113 0.346761 13.3626 0.498138C13.514 0.649515 13.5991 0.854827 13.5991 1.06891V4.71456C13.5991 4.92864 13.514 5.13395 13.3626 5.28533C13.2113 5.43671 13.006 5.52175 12.7919 5.52175ZM16.0654 8.38928V10.6421C16.0654 10.6684 16.0603 10.6944 16.0502 10.7186C16.0402 10.7429 16.0254 10.765 16.0068 10.7835C15.9883 10.8021 15.9662 10.8168 15.9419 10.8269C15.9177 10.8369 15.8916 10.8421 15.8654 10.8421H13.6126C13.5863 10.8421 13.5603 10.8369 13.536 10.8268C13.5118 10.8168 13.4897 10.8021 13.4712 10.7835C13.4526 10.7649 13.4379 10.7429 13.4278 10.7186C13.4178 10.6944 13.4126 10.6684 13.4126 10.6421V8.38928C13.4126 8.27884 13.5021 8.18931 13.6126 8.18931H15.8654C15.9759 8.18931 16.0654 8.27884 16.0654 8.38928ZM12.2404 8.38928V10.6421C12.2404 10.6684 12.2353 10.6944 12.2252 10.7186C12.2152 10.7429 12.2004 10.765 12.1818 10.7835C12.1633 10.8021 12.1412 10.8168 12.1169 10.8269C12.0927 10.8369 12.0666 10.8421 12.0404 10.8421H9.78756C9.7613 10.8421 9.7353 10.8369 9.71104 10.8268C9.68678 10.8168 9.66473 10.8021 9.64616 10.7835C9.62759 10.7649 9.61286 10.7429 9.60282 10.7186C9.59277 10.6944 9.58759 10.6684 9.58759 10.6421V8.38928C9.58759 8.27884 9.67712 8.18931 9.78756 8.18931H12.0404C12.1508 8.18931 12.2404 8.27884 12.2404 8.38928ZM8.41534 8.38928V10.6421C8.41534 10.6684 8.41017 10.6944 8.40011 10.7186C8.39006 10.7429 8.37532 10.765 8.35674 10.7835C8.33816 10.8021 8.31611 10.8168 8.29183 10.8269C8.26756 10.8369 8.24155 10.8421 8.21528 10.8421H5.96247C5.93621 10.8421 5.91021 10.8369 5.88594 10.8268C5.86168 10.8168 5.83964 10.8021 5.82107 10.7835C5.8025 10.7649 5.78777 10.7429 5.77772 10.7186C5.76767 10.6944 5.7625 10.6684 5.7625 10.6421V8.38928C5.7625 8.27884 5.85203 8.18931 5.96247 8.18931H8.21528C8.32581 8.18931 8.41534 8.27884 8.41534 8.38928ZM4.59034 8.38928V10.6421C4.59034 10.6684 4.58517 10.6944 4.57511 10.7186C4.56506 10.7429 4.55032 10.765 4.53174 10.7835C4.51316 10.8021 4.49111 10.8168 4.46683 10.8269C4.44256 10.8369 4.41655 10.8421 4.39028 10.8421H2.13747C2.11121 10.8421 2.08521 10.8369 2.06094 10.8268C2.03668 10.8168 2.01464 10.8021 1.99607 10.7835C1.9775 10.7649 1.96277 10.7429 1.95272 10.7186C1.94267 10.6944 1.9375 10.6684 1.9375 10.6421V8.38928C1.9375 8.27884 2.02703 8.18931 2.13747 8.18931H4.39028C4.50072 8.18931 4.59034 8.27884 4.59034 8.38928Z" fill="#FFA91A"/>
<path d="M12.2404 11.9754V14.2282C12.2404 14.2544 12.2353 14.2805 12.2252 14.3047C12.2152 14.329 12.2004 14.351 12.1818 14.3696C12.1633 14.3882 12.1412 14.4029 12.1169 14.4129C12.0927 14.423 12.0666 14.4282 12.0404 14.4281H9.78756C9.7613 14.4281 9.7353 14.423 9.71104 14.4129C9.68678 14.4029 9.66473 14.3881 9.64616 14.3696C9.62759 14.351 9.61286 14.329 9.60282 14.3047C9.59277 14.2804 9.58759 14.2544 9.58759 14.2282V11.9754C9.58759 11.8649 9.67712 11.7754 9.78756 11.7754H12.0404C12.1508 11.7754 12.2404 11.8649 12.2404 11.9754ZM8.41534 11.9754V14.2282C8.41534 14.2544 8.41017 14.2805 8.40011 14.3047C8.39006 14.329 8.37532 14.351 8.35674 14.3696C8.33816 14.3882 8.31611 14.4029 8.29183 14.4129C8.26756 14.423 8.24155 14.4282 8.21528 14.4281H5.96247C5.90943 14.4281 5.85857 14.4071 5.82107 14.3696C5.78357 14.3321 5.7625 14.2812 5.7625 14.2282V11.9754C5.7625 11.8649 5.85203 11.7754 5.96247 11.7754H8.21528C8.32581 11.7754 8.41534 11.8649 8.41534 11.9754ZM4.59034 11.9754V14.2282C4.59034 14.2544 4.58517 14.2805 4.57511 14.3047C4.56506 14.329 4.55032 14.351 4.53174 14.3696C4.51316 14.3882 4.49111 14.4029 4.46683 14.4129C4.44256 14.423 4.41655 14.4282 4.39028 14.4281H2.13747C2.08443 14.4281 2.03357 14.4071 1.99607 14.3696C1.95857 14.3321 1.9375 14.2812 1.9375 14.2282V11.9754C1.9375 11.8649 2.02703 11.7754 2.13747 11.7754H4.39028C4.50072 11.7754 4.59034 11.8649 4.59034 11.9754ZM12.2404 15.5615V17.8143C12.2404 17.8406 12.2353 17.8666 12.2252 17.8908C12.2152 17.9151 12.2004 17.9372 12.1818 17.9557C12.1633 17.9743 12.1412 17.989 12.1169 17.9991C12.0927 18.0091 12.0666 18.0143 12.0404 18.0143H9.78756C9.7613 18.0143 9.7353 18.0091 9.71104 17.999C9.68678 17.989 9.66473 17.9743 9.64616 17.9557C9.62759 17.9371 9.61286 17.9151 9.60282 17.8908C9.59277 17.8666 9.58759 17.8406 9.58759 17.8143V15.5615C9.58759 15.451 9.67712 15.3615 9.78756 15.3615H12.0404C12.1508 15.3615 12.2404 15.451 12.2404 15.5615ZM8.41534 15.5615V17.8143C8.41534 17.8406 8.41017 17.8666 8.40011 17.8908C8.39006 17.9151 8.37532 17.9372 8.35674 17.9557C8.33816 17.9743 8.31611 17.989 8.29183 17.9991C8.26756 18.0091 8.24155 18.0143 8.21528 18.0143H5.96247C5.93621 18.0143 5.91021 18.0091 5.88594 17.999C5.86168 17.989 5.83964 17.9743 5.82107 17.9557C5.8025 17.9371 5.78777 17.9151 5.77772 17.8908C5.76767 17.8666 5.7625 17.8406 5.7625 17.8143V15.5615C5.7625 15.451 5.85203 15.3615 5.96247 15.3615H8.21528C8.32581 15.3615 8.41534 15.451 8.41534 15.5615ZM4.59034 15.5615V17.8143C4.59034 17.8406 4.58517 17.8666 4.57511 17.8908C4.56506 17.9151 4.55032 17.9372 4.53174 17.9557C4.51316 17.9743 4.49111 17.989 4.46683 17.9991C4.44256 18.0091 4.41655 18.0143 4.39028 18.0143H2.13747C2.11121 18.0143 2.08521 18.0091 2.06094 17.999C2.03668 17.989 2.01464 17.9743 1.99607 17.9557C1.9775 17.9371 1.96277 17.9151 1.95272 17.8908C1.94267 17.8666 1.9375 17.8406 1.9375 17.8143V15.5615C1.9375 15.451 2.02703 15.3615 2.13747 15.3615H4.39028C4.50072 15.3615 4.59034 15.451 4.59034 15.5615ZM15.8654 11.7754H13.6126C13.5863 11.7754 13.5603 11.7806 13.536 11.7906C13.5118 11.8007 13.4897 11.8154 13.4712 11.834C13.4526 11.8525 13.4379 11.8746 13.4278 11.8988C13.4178 11.9231 13.4126 11.9491 13.4126 11.9754V14.2282C13.4126 14.3386 13.5021 14.4281 13.6126 14.4281H15.8654C15.9184 14.4281 15.9693 14.4071 16.0068 14.3696C16.0443 14.3321 16.0654 14.2812 16.0654 14.2282V11.9754C16.0654 11.9491 16.0603 11.9231 16.0502 11.8988C16.0402 11.8745 16.0254 11.8525 16.0068 11.8339C15.9883 11.8154 15.9662 11.8006 15.9419 11.7906C15.9177 11.7805 15.8916 11.7754 15.8654 11.7754ZM15.8654 15.3615H13.6126C13.5863 15.3615 13.5603 15.3667 13.536 15.3767C13.5118 15.3868 13.4897 15.4015 13.4712 15.4201C13.4526 15.4387 13.4379 15.4607 13.4278 15.485C13.4178 15.5092 13.4126 15.5352 13.4126 15.5615V17.8143C13.4126 17.9247 13.5021 18.0144 13.6126 18.0144H15.8654C15.9184 18.0144 15.9693 17.9933 16.0068 17.9558C16.0444 17.9182 16.0654 17.8674 16.0654 17.8143V15.5615C16.0654 15.5352 16.0603 15.5092 16.0502 15.4849C16.0402 15.4607 16.0254 15.4386 16.0068 15.4201C15.9883 15.4015 15.9662 15.3868 15.9419 15.3767C15.9177 15.3667 15.8916 15.3615 15.8654 15.3615Z" fill="#D1D3D4"/>
<path d="M0.578125 6.10449H17.4242V6.84559H0.578125V6.10449Z" fill="#377DE2"/>
<path d="M9.00194 21.0097C11.5638 21.0097 13.6406 18.9329 13.6406 16.3711C13.6406 13.8092 11.5638 11.7324 9.00194 11.7324C6.44008 11.7324 4.36328 13.8092 4.36328 16.3711C4.36328 18.9329 6.44008 21.0097 9.00194 21.0097Z" fill="#FFA91A"/>
<path d="M11.7781 12.6553C12.379 13.4565 12.7031 14.4314 12.7015 15.433C12.7015 17.9948 10.6248 20.0716 8.06287 20.0716C7.06132 20.0732 6.08641 19.7491 5.28516 19.1482C6.13116 20.278 7.48041 21.0091 9.00037 21.0091C11.5622 21.0091 13.639 18.9324 13.639 16.3705C13.639 14.8505 12.9079 13.5014 11.7781 12.6553Z" fill="#F79219"/>
<path d="M8.50877 18.4361C8.40465 18.4362 8.30154 18.4157 8.20535 18.3759C8.10916 18.3361 8.02178 18.2776 7.94824 18.2039L6.38711 16.6428C6.2416 16.4935 6.16078 16.2928 6.16213 16.0844C6.16348 15.8759 6.2469 15.6763 6.39433 15.5289C6.54176 15.3814 6.74133 15.298 6.94982 15.2967C7.15831 15.2953 7.35894 15.3761 7.50827 15.5216L8.50886 16.5223L10.4946 14.5365C10.6439 14.391 10.8445 14.3102 11.053 14.3115C11.2615 14.3129 11.4611 14.3963 11.6085 14.5437C11.7559 14.6912 11.8394 14.8907 11.8407 15.0992C11.8421 15.3077 11.7612 15.5084 11.6157 15.6577L9.06949 18.2039C8.9959 18.2776 8.90849 18.3361 8.81227 18.3759C8.71605 18.4157 8.61291 18.4362 8.50877 18.4361Z" fill="white"/>
</svg>
