<svg width="21" height="18" viewBox="0 0 21 18" fill="none" xmlns="http://www.w3.org/2000/svg">
<path d="M3.64585 10.9109C4.16134 10.3954 4.16134 9.55965 3.64585 9.04416C3.13035 8.52867 2.29458 8.52867 1.77908 9.04416C1.26359 9.55965 1.26359 10.3954 1.77908 10.9109C2.29458 11.4264 3.13035 11.4264 3.64585 10.9109Z" fill="#1363DF"/>
<path d="M19.581 11.2564C20.2904 11.0882 20.729 10.3768 20.5608 9.66745C20.3926 8.9581 19.6812 8.51942 18.9719 8.68763C18.2625 8.85583 17.8239 9.56723 17.9921 10.2766C18.1603 10.9859 18.8717 11.4246 19.581 11.2564Z" fill="#1363DF"/>
<path d="M18.2807 7.56027H17.1607C17.1607 4.16027 14.4007 1.40027 11.0007 1.40027C7.6007 1.40027 4.8407 4.16027 4.8407 7.56027H3.7207C3.7207 3.54027 6.9807 0.280273 11.0007 0.280273C15.0207 0.280273 18.2807 3.54027 18.2807 7.56027Z" fill="#DFF6FF"/>
<path d="M12.8595 17.2799C12.3795 17.2799 12.0595 17.2599 12.0195 17.2599L12.0595 16.8199C12.0995 16.8199 16.6395 17.1599 17.1795 15.2799C17.7795 13.1999 17.4795 10.9999 17.4795 10.9799L17.9195 10.9199C17.9395 10.9999 18.2395 13.2199 17.5995 15.3999C17.0995 17.0599 14.2995 17.2799 12.8595 17.2799Z" fill="white"/>
<path d="M12.6597 17.7207H11.4397C11.0397 17.7207 10.7197 17.4007 10.7197 17.0007C10.7197 16.6007 11.0397 16.2807 11.4397 16.2807H12.6597C13.0597 16.2807 13.3797 16.6007 13.3797 17.0007C13.3797 17.4007 13.0597 17.7207 12.6597 17.7207ZM4.03969 7.18066C3.01969 7.18066 2.17969 8.02066 2.17969 9.04066V11.2007C2.17969 12.2207 3.01969 13.0607 4.03969 13.0607C4.89969 13.0607 5.59969 12.3607 5.59969 11.5007V8.72066C5.57969 7.86066 4.89969 7.18066 4.03969 7.18066ZM17.9597 7.18066C17.0997 7.18066 16.3997 7.88066 16.3997 8.74066V11.5007C16.3997 12.3607 17.0997 13.0607 17.9597 13.0607C18.9797 13.0607 19.8197 12.2207 19.8197 11.2007V9.02066C19.8197 8.00066 18.9797 7.18066 17.9597 7.18066Z" fill="#47B5FF"/>
</svg>
