<svg width="142" height="168" viewBox="0 0 142 168" fill="none" xmlns="http://www.w3.org/2000/svg">
<path fill-rule="evenodd" clip-rule="evenodd" d="M127.25 94.1729H14.75V146.238C14.7497 147.448 15.1395 148.625 15.8615 149.596C16.5834 150.567 17.5991 151.279 18.7578 151.627L69.3828 166.814C70.4379 167.129 71.5621 167.129 72.6172 166.814L123.242 151.627C124.401 151.279 125.417 150.567 126.139 149.596C126.86 148.625 127.25 147.448 127.25 146.238V94.1729Z" fill="url(#paint0_linear_462_2540)"/>
<path fill-rule="evenodd" clip-rule="evenodd" d="M127.25 94.1729H71.0003C71.0003 94.1729 70.4547 167.05 71.0003 167.05C71.5459 167.05 72.0888 166.972 72.6175 166.814L123.243 151.627C124.401 151.279 125.417 150.567 126.139 149.596C126.861 148.625 127.251 147.448 127.25 146.238V94.1729Z" fill="url(#paint1_linear_462_2540)"/>
<path fill-rule="evenodd" clip-rule="evenodd" d="M70.9996 112.423L14.7496 94.1729L0.476153 115.334C0.232171 115.695 0.0754548 116.108 0.0183706 116.54C-0.0387136 116.972 0.00539565 117.412 0.147219 117.824C0.289041 118.236 0.524697 118.609 0.835589 118.915C1.14648 119.22 1.5241 119.449 1.93865 119.584L52.5496 136.026C53.1295 136.214 53.7549 136.209 54.3317 136.011C54.9085 135.813 55.4053 135.434 55.7474 134.929L70.9996 112.423Z" fill="url(#paint2_linear_462_2540)"/>
<path fill-rule="evenodd" clip-rule="evenodd" d="M127.25 94.1729L71 112.423L86.2522 134.929C86.5943 135.434 87.0911 135.813 87.6679 136.011C88.2447 136.209 88.8701 136.214 89.45 136.026L140.061 119.584C140.475 119.449 140.853 119.22 141.164 118.915C141.475 118.609 141.711 118.236 141.852 117.824C141.994 117.412 142.038 116.972 141.981 116.54C141.924 116.108 141.767 115.695 141.523 115.334L127.25 94.1729Z" fill="url(#paint3_linear_462_2540)"/>
<path fill-rule="evenodd" clip-rule="evenodd" d="M57.3838 55.8358C57.0411 55.3326 56.5444 54.9542 55.9683 54.7574C55.3922 54.5606 54.7677 54.5561 54.1888 54.7445L3.57509 71.1892C3.16024 71.3229 2.78221 71.5513 2.47096 71.8564C2.15971 72.1615 1.92378 72.5348 1.78186 72.9469C1.63995 73.359 1.59595 73.7985 1.65336 74.2306C1.71076 74.6626 1.86799 75.0753 2.11259 75.4361L14.7491 94.173L70.9991 75.8608L57.3838 55.8358Z" fill="url(#paint4_linear_462_2540)"/>
<path fill-rule="evenodd" clip-rule="evenodd" d="M139.887 75.4361C140.13 75.075 140.286 74.6624 140.343 74.2306C140.4 73.7989 140.356 73.3599 140.214 72.9482C140.072 72.5364 139.837 72.1632 139.526 71.858C139.215 71.5528 138.838 71.3238 138.424 71.1892L87.8103 54.7445C87.2314 54.5561 86.607 54.5606 86.0309 54.7574C85.4547 54.9542 84.958 55.3326 84.6153 55.8358L71 75.8608L127.25 94.173L139.887 75.4361Z" fill="url(#paint5_linear_462_2540)"/>
<path fill-rule="evenodd" clip-rule="evenodd" d="M127.25 94.1725L71 75.8604L14.75 94.1725L71 112.423L127.25 94.1725Z" fill="url(#paint6_linear_462_2540)"/>
<path fill-rule="evenodd" clip-rule="evenodd" d="M71 112.423V75.8604L14.75 94.1725L71 112.423Z" fill="url(#paint7_linear_462_2540)"/>
<path fill-rule="evenodd" clip-rule="evenodd" d="M59.6988 83.938C58.5807 83.2112 57.5234 82.3948 56.5375 81.4968C55.9848 81.0137 55.2651 80.7658 54.5322 80.8062C53.7992 80.8465 53.111 81.1718 52.6147 81.7126C52.1183 82.2534 51.853 82.9669 51.8755 83.7006C51.898 84.4343 52.2065 85.1302 52.735 85.6396C53.8853 86.6971 55.1819 87.7039 56.6219 88.6461C57.2462 89.041 58.0007 89.1744 58.7225 89.0175C59.4444 88.8606 60.0755 88.4261 60.4796 87.8078C60.8837 87.1894 61.0283 86.4369 60.8822 85.7129C60.7361 84.9888 60.311 84.3513 59.6988 83.938ZM50.935 75.298C50.1357 74.2209 49.4265 73.0799 48.8144 71.8865C48.4761 71.2215 47.8875 70.7181 47.1781 70.4871C46.4687 70.256 45.6966 70.3163 45.0316 70.6546C44.3666 70.9928 43.8632 71.5814 43.6322 72.2909C43.4012 73.0003 43.4614 73.7724 43.7997 74.4374C44.5141 75.838 45.3803 77.2414 46.4069 78.6336C46.8547 79.2191 47.5145 79.6054 48.2443 79.7093C48.974 79.8133 49.7154 79.6266 50.3089 79.1894C50.9024 78.7522 51.3005 78.0995 51.4176 77.3717C51.5347 76.6439 51.3614 75.8993 50.935 75.298ZM46.8231 63.8202C46.8513 62.6868 47.0172 61.5871 47.321 60.5324C47.4227 60.1773 47.4535 59.8056 47.4116 59.4385C47.3697 59.0715 47.256 58.7163 47.0768 58.3933C46.8976 58.0702 46.6566 57.7856 46.3675 57.5557C46.0783 57.3258 45.7467 57.1551 45.3916 57.0533C45.0365 56.9516 44.6648 56.9208 44.2977 56.9627C43.9307 57.0045 43.5755 57.1183 43.2525 57.2975C42.9294 57.4766 42.6448 57.7177 42.4149 58.0068C42.185 58.296 42.0143 58.6276 41.9125 58.9827C41.4775 60.512 41.2375 62.0901 41.1981 63.6796C41.1795 64.4255 41.4579 65.1483 41.9722 65.6889C42.4865 66.2295 43.1944 66.5437 43.9403 66.5624C44.6863 66.581 45.409 66.3026 45.9497 65.7883C46.4903 65.2741 46.8045 64.5661 46.8231 63.8202ZM51.1488 54.4265C51.8716 53.7571 52.6816 53.1383 53.5675 52.5786C53.88 52.3816 54.1506 52.1249 54.3639 51.8233C54.5771 51.5217 54.7289 51.181 54.8105 50.8207C54.8921 50.4605 54.902 50.0876 54.8395 49.7236C54.777 49.3595 54.6435 49.0113 54.4464 48.6988C54.2494 48.3863 53.9927 48.1157 53.6911 47.9025C53.3895 47.6892 53.0488 47.5374 52.6885 47.4558C52.3283 47.3742 51.9554 47.3643 51.5913 47.4268C51.2273 47.4893 50.879 47.6228 50.5666 47.8199C49.4124 48.545 48.3277 49.3755 47.3266 50.3005C46.7932 50.8107 46.4818 51.5102 46.4596 52.248C46.4373 52.9857 46.7059 53.7027 47.2076 54.2442C47.7092 54.7856 48.4035 55.1082 49.1408 55.1423C49.8782 55.1764 50.5993 54.9193 51.1488 54.4265ZM61.6085 49.5749C63.093 49.3037 64.5949 49.1383 66.1028 49.0799C66.8305 49.0237 67.5079 48.6872 67.9923 48.1412C68.4766 47.5952 68.73 46.8825 68.699 46.1533C68.6679 45.4241 68.355 44.7355 67.8261 44.2326C67.2971 43.7297 66.5936 43.4519 65.8638 43.4577C64.0075 43.5364 62.2469 43.7361 60.5847 44.0427C59.8511 44.1785 59.2015 44.6001 58.7787 45.2148C58.356 45.8296 58.1947 46.5871 58.3305 47.3207C58.4662 48.0543 58.8879 48.7039 59.5026 49.1267C60.1173 49.5494 60.8748 49.7106 61.6085 49.5749ZM76.2672 49.409C78.6663 49.4371 80.8994 49.3527 82.9722 49.1699C83.7084 49.0953 84.3855 48.7337 84.8568 48.1633C85.3282 47.5929 85.5557 46.8598 85.4903 46.1228C85.4248 45.3858 85.0715 44.7042 84.507 44.2259C83.9424 43.7476 83.2122 43.511 82.4744 43.5674C80.576 43.7333 78.5313 43.8121 76.3319 43.784C75.586 43.7754 74.8672 44.0635 74.3337 44.5848C73.8002 45.1062 73.4956 45.8182 73.487 46.5641C73.4785 47.31 73.7666 48.0288 74.2879 48.5623C74.8093 49.0958 75.5213 49.4004 76.2672 49.409ZM92.2169 47.4458C95.0013 46.5936 97.3525 45.5024 99.3213 44.2508C99.6328 44.0523 99.9022 43.7944 100.114 43.4917C100.326 43.1891 100.476 42.8477 100.556 42.487C100.636 42.1264 100.644 41.7535 100.58 41.3897C100.516 41.0259 100.38 40.6783 100.182 40.3668C99.9834 40.0552 99.7254 39.7858 99.4228 39.574C99.1202 39.3621 98.7788 39.212 98.4181 39.132C98.0574 39.0521 97.6846 39.044 97.3208 39.1082C96.957 39.1724 96.6094 39.3076 96.2978 39.5061C94.5129 40.6129 92.5868 41.4738 90.5716 42.0655C89.8581 42.2837 89.2605 42.7764 88.9103 43.4351C88.5601 44.0939 88.4859 44.8649 88.7041 45.5783C88.9223 46.2918 89.4149 46.8894 90.0737 47.2396C90.7325 47.5898 91.5034 47.664 92.2169 47.4458ZM106.533 36.3786C107.798 33.7501 108.385 30.8464 108.24 27.9327C108.223 27.5637 108.133 27.2018 107.976 26.8674C107.819 26.5331 107.597 26.233 107.324 25.9843C107.051 25.7355 106.732 25.543 106.384 25.4176C106.037 25.2923 105.668 25.2366 105.299 25.2538C104.93 25.271 104.568 25.3606 104.234 25.5177C103.9 25.6748 103.6 25.8962 103.351 26.1692C103.102 26.4423 102.909 26.7616 102.784 27.1091C102.659 27.4565 102.603 27.8253 102.62 28.1943C102.721 30.1731 102.325 32.1457 101.467 33.9318C101.18 34.5982 101.161 35.3496 101.415 36.0295C101.669 36.7093 102.175 37.2649 102.828 37.5805C103.482 37.8962 104.232 37.9473 104.922 37.7234C105.612 37.4995 106.189 37.0177 106.533 36.3786ZM104.741 17.9877C102.691 15.2174 99.9091 13.288 96.8772 12.6665C96.1576 12.5446 95.4189 12.707 94.8167 13.1193C94.2146 13.5317 93.7961 14.1617 93.6494 14.8766C93.5028 15.5915 93.6395 16.3355 94.0308 16.9515C94.422 17.5676 95.0372 18.0077 95.7466 18.179C97.496 18.5361 99.0372 19.7371 100.221 21.3374C100.441 21.6342 100.717 21.8847 101.034 22.0747C101.351 22.2647 101.702 22.3905 102.067 22.4448C102.433 22.4991 102.805 22.4809 103.164 22.3913C103.522 22.3017 103.859 22.1423 104.156 21.9224C104.453 21.7024 104.703 21.4262 104.893 21.1094C105.083 20.7927 105.209 20.4416 105.263 20.0762C105.318 19.7108 105.3 19.3383 105.21 18.98C105.12 18.6216 104.961 18.2845 104.741 17.9877Z" fill="url(#paint8_linear_462_2540)"/>
<path fill-rule="evenodd" clip-rule="evenodd" d="M67.998 13.2121C71.0412 -4.02007 97.414 -2.90632 82.0605 13.2121H67.998Z" fill="url(#paint9_linear_462_2540)"/>
<path fill-rule="evenodd" clip-rule="evenodd" d="M67.998 17.5771C71.0412 34.8065 97.414 33.6956 82.0605 17.5771H67.998Z" fill="url(#paint10_linear_462_2540)"/>
<path fill-rule="evenodd" clip-rule="evenodd" d="M67.7461 18.2354H86.5786C87.3246 18.2354 88.0399 17.939 88.5674 17.4116C89.0948 16.8841 89.3911 16.1688 89.3911 15.4229C89.3911 14.6769 89.0948 13.9616 88.5674 13.4341C88.0399 12.9067 87.3246 12.6104 86.5786 12.6104H67.7461C67.022 12.6427 66.3382 12.9532 65.8372 13.4771C65.3362 14.001 65.0566 14.698 65.0566 15.4229C65.0566 16.1477 65.3362 16.8447 65.8372 17.3686C66.3382 17.8925 67.022 18.203 67.7461 18.2354Z" fill="url(#paint11_linear_462_2540)"/>
<defs>
<linearGradient id="paint0_linear_462_2540" x1="14.75" y1="130.612" x2="127.25" y2="130.612" gradientUnits="userSpaceOnUse">
<stop stop-color="#CADCF0"/>
<stop offset="1" stop-color="#A4BBDB"/>
</linearGradient>
<linearGradient id="paint1_linear_462_2540" x1="70.7584" y1="130.612" x2="127.25" y2="130.612" gradientUnits="userSpaceOnUse">
<stop stop-color="#A4BBDB"/>
<stop offset="1" stop-color="#8DA3BE"/>
</linearGradient>
<linearGradient id="paint2_linear_462_2540" x1="15.1236" y1="94.1504" x2="22.9853" y2="146.163" gradientUnits="userSpaceOnUse">
<stop stop-color="#E9F3FC"/>
<stop offset="1" stop-color="#CADCF0"/>
</linearGradient>
<linearGradient id="paint3_linear_462_2540" x1="71.2278" y1="112.232" x2="130.526" y2="146.336" gradientUnits="userSpaceOnUse">
<stop stop-color="#E9F3FC"/>
<stop offset="1" stop-color="#CADCF0"/>
</linearGradient>
<linearGradient id="paint4_linear_462_2540" x1="7.38602" y1="83.2576" x2="15.8714" y2="43.2575" gradientUnits="userSpaceOnUse">
<stop stop-color="#E9F3FC"/>
<stop offset="1" stop-color="#CADCF0"/>
</linearGradient>
<linearGradient id="paint5_linear_462_2540" x1="86.0581" y1="54.0667" x2="89.0923" y2="103.439" gradientUnits="userSpaceOnUse">
<stop stop-color="#E9F3FC"/>
<stop offset="1" stop-color="#CADCF0"/>
</linearGradient>
<linearGradient id="paint6_linear_462_2540" x1="14.75" y1="94.1416" x2="127.25" y2="94.1416" gradientUnits="userSpaceOnUse">
<stop stop-color="#CADCF0"/>
<stop offset="1" stop-color="#A4BBDB"/>
</linearGradient>
<linearGradient id="paint7_linear_462_2540" x1="76.7853" y1="75.0508" x2="77.9972" y2="120.482" gradientUnits="userSpaceOnUse">
<stop stop-color="#A4BBDB"/>
<stop offset="1" stop-color="#8DA3BE"/>
</linearGradient>
<linearGradient id="paint8_linear_462_2540" x1="40.0367" y1="13.2116" x2="95.5102" y2="78.6677" gradientUnits="userSpaceOnUse">
<stop stop-color="#559AFF"/>
<stop offset="1" stop-color="#2E69EF"/>
</linearGradient>
<linearGradient id="paint9_linear_462_2540" x1="67.998" y1="6.95712" x2="86.8277" y2="6.95712" gradientUnits="userSpaceOnUse">
<stop stop-color="#E9F3FC"/>
<stop offset="1" stop-color="#CADCF0"/>
</linearGradient>
<linearGradient id="paint10_linear_462_2540" x1="67.998" y1="23.8321" x2="86.8277" y2="23.8321" gradientUnits="userSpaceOnUse">
<stop stop-color="#E9F3FC"/>
<stop offset="1" stop-color="#CADCF0"/>
</linearGradient>
<linearGradient id="paint11_linear_462_2540" x1="40.0375" y1="13.2118" x2="95.511" y2="78.6678" gradientUnits="userSpaceOnUse">
<stop stop-color="#559AFF"/>
<stop offset="1" stop-color="#2E69EF"/>
</linearGradient>
</defs>
</svg>
