<svg width="24" height="22" viewBox="0 0 24 22" fill="none" xmlns="http://www.w3.org/2000/svg">
<path d="M22.4398 11.7994L7.89722 19.8031C7.51432 20.0137 7.06343 20.0636 6.64373 19.9418C6.22403 19.8201 5.86989 19.5365 5.65922 19.1537L1.22733 11.1017C1.01681 10.7188 0.966962 10.268 1.08874 9.84839C1.21052 9.42878 1.49396 9.0747 1.87675 8.86402L16.419 0.859319C16.8019 0.648686 17.2528 0.598773 17.6725 0.720559C18.0922 0.842345 18.4463 1.12586 18.657 1.50873L23.0889 9.56108C23.2994 9.94395 23.3492 10.3948 23.2275 10.8144C23.1057 11.234 22.8222 11.5881 22.4395 11.7987L22.4398 11.7994Z" fill="#FEBC1F"/>
<path d="M22.1238 11.2223L7.58081 19.2259C7.19791 19.4366 6.74702 19.4865 6.32732 19.3647C5.90762 19.2429 5.55349 18.9594 5.34281 18.5765L0.910927 10.5245C0.700406 10.1417 0.650555 9.69086 0.772336 9.27124C0.894117 8.85163 1.17756 8.49755 1.56034 8.28688L16.1029 0.28217C16.4858 0.0715371 16.9367 0.0216244 17.3564 0.14341C17.7761 0.265197 18.1302 0.548707 18.3409 0.931582L22.7728 8.98394C22.9833 9.3668 23.0332 9.8176 22.9114 10.2372C22.7896 10.6568 22.5062 11.0109 22.1234 11.2216L22.1238 11.2223Z" fill="#FFD475"/>
<path d="M16.1031 0.282701L1.56049 8.28635C1.17761 8.49703 0.894103 8.85116 0.772317 9.27086C0.650531 9.69056 0.700443 10.1414 0.911076 10.5243L5.34296 18.5771C5.34296 18.5771 1.21355 10.6796 17.5734 0.225525C17.3408 0.120127 17.0867 0.0704177 16.8315 0.0803427C16.5763 0.0902678 16.3269 0.159554 16.1031 0.282701Z" fill="#FEBC1F"/>
<path d="M2.21362 11.5121L2.77021 12.5233C2.8376 12.6456 2.95081 12.7362 3.08496 12.7751C3.21911 12.814 3.36322 12.7981 3.48562 12.7308L18.8273 4.28738C18.9496 4.21999 19.0402 4.10678 19.0791 3.97263C19.118 3.83849 19.1021 3.69437 19.0348 3.57197L18.4782 2.5608C18.4108 2.43845 18.2976 2.34786 18.1635 2.30895C18.0293 2.27004 17.8852 2.28598 17.7628 2.35327L2.42115 10.7967C2.2988 10.8641 2.20822 10.9773 2.1693 11.1114C2.13039 11.2456 2.14633 11.3897 2.21362 11.5121Z" fill="#1D2943"/>
<path d="M2.05967 11.2318L2.61626 12.243C2.68365 12.3653 2.79686 12.4559 2.93101 12.4948C3.06516 12.5338 3.20927 12.5178 3.33167 12.4505L18.6733 4.00711C18.7957 3.93972 18.8863 3.82651 18.9252 3.69236C18.9641 3.55821 18.9481 3.4141 18.8809 3.2917L18.3243 2.28052C18.2569 2.15818 18.1437 2.06759 18.0095 2.02868C17.8754 1.98976 17.7313 2.0057 17.6089 2.07299L2.26685 10.5168C2.1445 10.5841 2.05392 10.6974 2.015 10.8315C1.97609 10.9657 1.99203 11.1098 2.05932 11.2322L2.05967 11.2318Z" fill="#4C5C75"/>
<path d="M19.8115 21.9213H3.21234C2.77535 21.9213 2.35626 21.7477 2.04723 21.4387C1.7382 21.1298 1.56455 20.7107 1.56445 20.2737V11.0821C1.56455 10.6451 1.7382 10.2261 2.04723 9.9171C2.35626 9.60814 2.77535 9.43457 3.21234 9.43457H19.8112C20.2481 9.43457 20.6672 9.60814 20.9763 9.9171C21.2853 10.2261 21.4589 10.6451 21.459 11.0821V20.2737C21.4589 20.7107 21.2853 21.1298 20.9763 21.4387C20.6672 21.7477 20.2485 21.9213 19.8115 21.9213Z" fill="#5094FF"/>
<path d="M3.21198 21.2634H19.8112C20.0276 21.2635 20.2419 21.2209 20.4419 21.1381C20.6419 21.0553 20.8236 20.9339 20.9766 20.7809C21.1297 20.6279 21.2511 20.4462 21.3339 20.2462C21.4168 20.0463 21.4594 19.832 21.4594 19.6155V10.4242C21.4594 9.9872 21.2858 9.56806 20.9767 9.25902C20.6677 8.94998 20.2486 8.77637 19.8115 8.77637H3.21234C2.99593 8.77637 2.78165 8.81899 2.58172 8.90181C2.38179 8.98462 2.20013 9.106 2.04711 9.25902C1.89409 9.41204 1.7727 9.5937 1.68989 9.79363C1.60708 9.99356 1.56445 10.2078 1.56445 10.4242V19.6155C1.56441 19.832 1.607 20.0463 1.68979 20.2463C1.77258 20.4462 1.89396 20.6279 2.04698 20.781C2.20001 20.9341 2.38168 21.0555 2.58164 21.1383C2.78159 21.2211 2.9959 21.2638 3.21234 21.2638L3.21198 21.2634Z" fill="#57B3FE"/>
<path d="M3.2126 8.77672H19.8118C20.2488 8.77672 20.6679 8.95029 20.9769 9.25925C21.2859 9.56821 21.4596 9.98727 21.4597 10.4242V19.6155C21.4597 19.6155 21.2701 10.7059 1.89648 9.43531C2.0495 9.23077 2.24809 9.06471 2.47649 8.95033C2.70489 8.83594 2.95681 8.77638 3.21225 8.77637L3.2126 8.77672Z" fill="#5094FF"/>
<path d="M20.1684 18.3063V18.5618H20.1648C20.1715 18.9077 19.8832 19.1982 19.5352 19.1982H17.8633C17.522 19.1982 17.2269 18.913 17.234 18.5618H17.2305V18.3063H17.2714C17.3702 18.0578 17.6388 17.8877 17.9212 17.8877H19.4776C19.76 17.8877 20.0286 18.0578 20.1274 18.3063H20.1684Z" fill="#E3E7F0"/>
<path d="M19.5323 18.9436H17.9162C17.5908 18.9436 17.283 18.7227 17.2372 18.4001C17.2239 18.3096 17.2303 18.2174 17.2559 18.1296C17.2815 18.0419 17.3257 17.9606 17.3855 17.8915C17.4452 17.8223 17.5192 17.7668 17.6023 17.7287C17.6854 17.6907 17.7757 17.671 17.8672 17.6709H19.4769C19.8221 17.6709 20.144 17.9215 20.1648 18.266C20.1708 18.3527 20.1588 18.4397 20.1297 18.5216C20.1006 18.6035 20.055 18.6786 19.9957 18.7421C19.9364 18.8057 19.8647 18.8563 19.785 18.891C19.7053 18.9257 19.6193 18.9436 19.5323 18.9436Z" fill="white"/>
<path d="M15.3754 18.3063V18.5618H15.3719C15.3789 18.9077 15.0902 19.1982 14.7426 19.1982H13.0707C12.729 19.1982 12.4343 18.913 12.441 18.5618H12.4375V18.3063H12.4784C12.5773 18.0578 12.8462 17.8877 13.1286 17.8877H14.6847C14.967 17.8877 15.236 18.0578 15.3348 18.3063H15.3754Z" fill="#E3E7F0"/>
<path d="M14.7433 18.9436H13.1268C12.8014 18.9436 12.4936 18.7227 12.4481 18.4001C12.4349 18.3096 12.4413 18.2174 12.4669 18.1297C12.4924 18.042 12.5366 17.9608 12.5963 17.8916C12.656 17.8224 12.7299 17.7669 12.813 17.7288C12.8961 17.6908 12.9864 17.671 13.0777 17.6709H14.6875C15.033 17.6709 15.3546 17.9215 15.3757 18.266C15.3817 18.3527 15.3698 18.4397 15.3407 18.5216C15.3116 18.6035 15.266 18.6786 15.2067 18.7421C15.1474 18.8057 15.0756 18.8563 14.9959 18.891C14.9162 18.9257 14.8302 18.9436 14.7433 18.9436Z" fill="white"/>
<path d="M10.5867 18.3063V18.5618H10.5831C10.5898 18.9077 10.3015 19.1982 9.9535 19.1982H8.28161C7.93997 19.1982 7.64526 18.913 7.65197 18.5618H7.64844V18.3063H7.68973C7.78856 18.0578 8.05714 17.8877 8.3395 17.8877H9.89597C10.1783 17.8877 10.4469 18.0578 10.5457 18.3063H10.5867Z" fill="#E3E7F0"/>
<path d="M9.95031 18.9436H8.33419C8.00878 18.9436 7.70102 18.7227 7.65513 18.4001C7.64191 18.3096 7.64832 18.2174 7.67391 18.1296C7.6995 18.0419 7.74368 17.9606 7.80344 17.8915C7.8632 17.8223 7.93715 17.7668 8.02027 17.7287C8.10339 17.6907 8.19372 17.671 8.28513 17.6709H9.89454C10.2404 17.6709 10.5616 17.9215 10.5828 18.266C10.5887 18.3527 10.5768 18.4397 10.5477 18.5216C10.5186 18.6035 10.473 18.6786 10.4137 18.7421C10.3544 18.8057 10.2826 18.8563 10.2029 18.891C10.1232 18.9257 10.0372 18.9436 9.95031 18.9436Z" fill="white"/>
<path d="M5.79335 18.3063V18.5618H5.78982C5.79688 18.9077 5.50817 19.1982 5.16053 19.1982H3.48865C3.147 19.1982 2.85229 18.913 2.859 18.5618H2.85547V18.3063H2.89641C2.99523 18.0578 3.26382 17.8877 3.54653 17.8877H5.10265C5.385 17.8877 5.65394 18.0578 5.75241 18.3063H5.79335Z" fill="#E3E7F0"/>
<path d="M5.15734 18.9436H3.54087C3.21546 18.9436 2.90769 18.7227 2.86216 18.4001C2.84895 18.3096 2.85534 18.2174 2.88091 18.1297C2.90648 18.042 2.95063 17.9608 3.01036 17.8916C3.07008 17.8224 3.14399 17.7669 3.22706 17.7288C3.31013 17.6908 3.40043 17.671 3.49181 17.6709H5.10158C5.44711 17.6709 5.76863 17.9215 5.78981 18.266C5.79576 18.3527 5.78382 18.4397 5.75473 18.5216C5.72565 18.6035 5.68003 18.6786 5.62072 18.7421C5.56142 18.8057 5.48968 18.8563 5.40996 18.891C5.33025 18.9257 5.24426 18.9436 5.15734 18.9436Z" fill="white"/>
<path d="M2.85547 11.6795V13.217C2.85547 13.6045 3.16959 13.9186 3.55712 13.9186H6.43641C6.82394 13.9186 7.13806 13.6045 7.13806 13.217V11.6795C7.13806 11.292 6.82394 10.9775 6.43641 10.9775H3.55712C3.16959 10.9775 2.85547 11.2917 2.85547 11.6795Z" fill="#FEBC1F"/>
<path d="M2.85547 11.4403V12.9777C2.85547 13.3652 3.16959 13.6797 3.55712 13.6797H6.43641C6.82394 13.6797 7.13806 13.3656 7.13806 12.9777V11.4403C7.13806 11.0528 6.82394 10.7383 6.43641 10.7383H3.55712C3.16959 10.7383 2.85547 11.0524 2.85547 11.4403Z" fill="#FFD475"/>
<path d="M4.92389 12.0431V10.7383H4.59036V12.0431H2.85742V12.3763H3.80542V13.6797H4.1386V12.3763H5.63966V13.6797H5.97283V12.3763H7.13966V12.0431H4.92389Z" fill="#FEBC1F"/>
<path d="M19.8647 13.1936H17.9877C17.8314 13.1936 17.6839 13.0878 17.6616 12.9328C17.6552 12.8894 17.6583 12.8451 17.6706 12.8029C17.6828 12.7607 17.704 12.7217 17.7327 12.6884C17.7614 12.6552 17.7969 12.6285 17.8369 12.6102C17.8768 12.5919 17.9202 12.5824 17.9641 12.5824H19.8382C20.0037 12.5824 20.158 12.7027 20.1682 12.8682C20.1711 12.9099 20.1653 12.9516 20.1514 12.991C20.1374 13.0303 20.1155 13.0663 20.0871 13.0968C20.0586 13.1273 20.0242 13.1517 19.9859 13.1683C19.9477 13.185 19.9064 13.1936 19.8647 13.1936ZM19.8647 11.8853H16.5696C16.4133 11.8853 16.2657 11.7794 16.2435 11.6241C16.2372 11.5807 16.2403 11.5364 16.2526 11.4943C16.2649 11.4522 16.2861 11.4132 16.3148 11.38C16.3434 11.3467 16.3789 11.3201 16.4188 11.3018C16.4587 11.2835 16.5021 11.274 16.546 11.274H19.8379C20.0037 11.274 20.158 11.394 20.1682 11.5599C20.1711 11.6015 20.1653 11.6433 20.1514 11.6826C20.1374 11.7219 20.1155 11.758 20.0871 11.7885C20.0586 11.819 20.0242 11.8433 19.9859 11.86C19.9477 11.8766 19.9064 11.8852 19.8647 11.8853ZM19.3635 4.75977C20.1463 5.76206 20.7911 6.86484 21.2807 8.03859C20.498 7.0363 19.8529 5.93352 19.3635 4.75977ZM4.74609 8.03753C5.88535 7.16438 7.12426 6.42959 8.4368 5.84859C7.29753 6.72173 6.05862 7.45652 4.74609 8.03753ZM14.1866 20.4356C15.6118 20.2659 17.0521 20.2659 18.4773 20.4356C17.0479 20.6061 15.616 20.6051 14.1866 20.4356Z" fill="white"/>
</svg>
